<mxfile host="Electron" agent="Mozilla/5.0 (X11; Linux x86_64) AppleWebKit/537.36 (KHTML, like Gecko) draw.io/28.0.4 Chrome/138.0.7204.97 Electron/37.2.1 Safari/537.36" version="28.0.4">
  <diagram name="Page-1" id="vQFD9IHH9OHuP8rZT1yi">
    <mxGraphModel dx="836" dy="786" grid="0" gridSize="10" guides="1" tooltips="1" connect="1" arrows="1" fold="1" page="1" pageScale="1" pageWidth="850" pageHeight="1100" math="0" shadow="0">
      <root>
        <mxCell id="0" />
        <mxCell id="1" parent="0" />
        <mxCell id="BIX7JRqGrBAcpm_5c3oW-1" value="&lt;font style=&quot;font-size: 18px;&quot;&gt;ciphertext&lt;/font&gt;" style="text;html=1;align=center;verticalAlign=middle;whiteSpace=wrap;rounded=0;" parent="1" vertex="1">
          <mxGeometry x="401" y="183" width="60" height="30" as="geometry" />
        </mxCell>
        <mxCell id="BIX7JRqGrBAcpm_5c3oW-2" value="" style="endArrow=classic;html=1;rounded=0;" parent="1" source="BIX7JRqGrBAcpm_5c3oW-1" edge="1">
          <mxGeometry width="50" height="50" relative="1" as="geometry">
            <mxPoint x="527" y="188" as="sourcePoint" />
            <mxPoint x="302" y="312" as="targetPoint" />
          </mxGeometry>
        </mxCell>
        <mxCell id="BIX7JRqGrBAcpm_5c3oW-3" value="" style="endArrow=classic;html=1;rounded=0;" parent="1" source="BIX7JRqGrBAcpm_5c3oW-1" target="BIX7JRqGrBAcpm_5c3oW-12" edge="1">
          <mxGeometry width="50" height="50" relative="1" as="geometry">
            <mxPoint x="497" y="299" as="sourcePoint" />
            <mxPoint x="427" y="318" as="targetPoint" />
          </mxGeometry>
        </mxCell>
        <mxCell id="BIX7JRqGrBAcpm_5c3oW-4" value="" style="endArrow=classic;html=1;rounded=0;" parent="1" source="BIX7JRqGrBAcpm_5c3oW-1" edge="1">
          <mxGeometry width="50" height="50" relative="1" as="geometry">
            <mxPoint x="544" y="267" as="sourcePoint" />
            <mxPoint x="515" y="312" as="targetPoint" />
          </mxGeometry>
        </mxCell>
        <mxCell id="BIX7JRqGrBAcpm_5c3oW-5" value="" style="endArrow=classic;html=1;rounded=0;" parent="1" source="BIX7JRqGrBAcpm_5c3oW-1" edge="1">
          <mxGeometry width="50" height="50" relative="1" as="geometry">
            <mxPoint x="571" y="257" as="sourcePoint" />
            <mxPoint x="582" y="294" as="targetPoint" />
          </mxGeometry>
        </mxCell>
        <mxCell id="BIX7JRqGrBAcpm_5c3oW-6" value="path" style="text;html=1;align=center;verticalAlign=middle;whiteSpace=wrap;rounded=0;" parent="1" vertex="1">
          <mxGeometry x="279" y="235" width="60" height="30" as="geometry" />
        </mxCell>
        <mxCell id="BIX7JRqGrBAcpm_5c3oW-10" value="path 3" style="text;html=1;align=center;verticalAlign=middle;whiteSpace=wrap;rounded=0;" parent="1" vertex="1">
          <mxGeometry x="431" y="283" width="60" height="30" as="geometry" />
        </mxCell>
        <mxCell id="BIX7JRqGrBAcpm_5c3oW-11" value="path 4" style="text;html=1;align=center;verticalAlign=middle;whiteSpace=wrap;rounded=0;" parent="1" vertex="1">
          <mxGeometry x="528" y="218" width="60" height="30" as="geometry" />
        </mxCell>
        <mxCell id="BIX7JRqGrBAcpm_5c3oW-12" value="&lt;font style=&quot;font-size: 18px;&quot;&gt;correct plaintext&lt;/font&gt;" style="text;html=1;align=center;verticalAlign=middle;whiteSpace=wrap;rounded=0;" parent="1" vertex="1">
          <mxGeometry x="270" y="392" width="322" height="30" as="geometry" />
        </mxCell>
        <mxCell id="BIX7JRqGrBAcpm_5c3oW-13" value="other possibilites" style="text;html=1;align=center;verticalAlign=middle;whiteSpace=wrap;rounded=0;" parent="1" vertex="1">
          <mxGeometry x="487" y="329" width="60" height="30" as="geometry" />
        </mxCell>
        <mxCell id="BIX7JRqGrBAcpm_5c3oW-14" value="other possibilites" style="text;html=1;align=center;verticalAlign=middle;whiteSpace=wrap;rounded=0;" parent="1" vertex="1">
          <mxGeometry x="585" y="304" width="60" height="30" as="geometry" />
        </mxCell>
        <mxCell id="BIX7JRqGrBAcpm_5c3oW-15" value="&lt;font style=&quot;font-size: 14px; color: rgb(255, 0, 0);&quot;&gt;correct path&lt;/font&gt;" style="ellipse;whiteSpace=wrap;html=1;" parent="1" vertex="1">
          <mxGeometry x="347" y="313" width="74" height="31" as="geometry" />
        </mxCell>
        <mxCell id="BIX7JRqGrBAcpm_5c3oW-17" value="correct path is the secret (could be bytes of a cryptography key)" style="text;html=1;align=center;verticalAlign=middle;whiteSpace=wrap;rounded=0;" parent="1" vertex="1">
          <mxGeometry x="305" y="459" width="280" height="30" as="geometry" />
        </mxCell>
        <mxCell id="BIX7JRqGrBAcpm_5c3oW-18" value="public / private cryptography, use two paths?" style="text;html=1;align=center;verticalAlign=middle;whiteSpace=wrap;rounded=0;" parent="1" vertex="1">
          <mxGeometry x="266" y="515" width="379" height="30" as="geometry" />
        </mxCell>
        <mxCell id="BIX7JRqGrBAcpm_5c3oW-19" value="Do something that slows down brute force (like iterations on hashes)" style="text;html=1;align=center;verticalAlign=middle;whiteSpace=wrap;rounded=0;" parent="1" vertex="1">
          <mxGeometry x="206" y="566" width="460" height="30" as="geometry" />
        </mxCell>
        <mxCell id="BIX7JRqGrBAcpm_5c3oW-20" value="problems" style="text;html=1;align=center;verticalAlign=middle;whiteSpace=wrap;rounded=0;" parent="1" vertex="1">
          <mxGeometry x="406" y="617" width="60" height="30" as="geometry" />
        </mxCell>
        <mxCell id="BIX7JRqGrBAcpm_5c3oW-21" value="key too big" style="text;html=1;align=center;verticalAlign=middle;whiteSpace=wrap;rounded=0;" parent="1" vertex="1">
          <mxGeometry x="336" y="640" width="60" height="30" as="geometry" />
        </mxCell>
        <mxCell id="VByGxy5mupLnkYwuNrfV-1" value="can we use two paths?" style="text;html=1;align=center;verticalAlign=middle;whiteSpace=wrap;rounded=0;" parent="1" vertex="1">
          <mxGeometry x="339" y="692" width="245" height="30" as="geometry" />
        </mxCell>
        <mxCell id="iM8Ksr491qBUeLYPdLNX-1" value="&lt;font style=&quot;font-size: 17px;&quot;&gt;License&lt;/font&gt;&lt;div&gt;&lt;font style=&quot;font-size: 17px;&quot;&gt;For linux, and academic use / research it has all rights. For any commecial usage, you need to contact me andrealbergaria@gmail.com and have my permission&lt;/font&gt;&lt;/div&gt;&lt;div&gt;&lt;br&gt;&lt;/div&gt;" style="text;html=1;align=center;verticalAlign=middle;whiteSpace=wrap;rounded=0;" vertex="1" parent="1">
          <mxGeometry x="179" y="86" width="518" height="30" as="geometry" />
        </mxCell>
      </root>
    </mxGraphModel>
  </diagram>
</mxfile>
